<svg id="Layer_1" data-name="Layer 1" xmlns="http://www.w3.org/2000/svg" viewBox="0 0 573 109"><defs><style>.cls-1{fill:#ff6b6b;}.cls-2{fill:#fff;}</style></defs><title>Artboard 2</title><path class="cls-1" d="M16.06,39.68H32.8l-1.26,4c3-2.25,7.11-4.86,12.51-4.86,5.13,0,8.28,2.43,9.72,6.12,3.6-3.51,8-6.12,13.95-6.12,10.08,0,14.85,7.74,11.43,18.9l-4.32,14c-.72,2.43-.81,4.23,1,4.23C79,76,83.65,70.1,88.6,60.11a10.8,10.8,0,0,1,6.48,3.15C88.51,77.75,79.69,87.65,68.71,87.65c-11.52,0-12.15-11-9.54-19.53l2.34-7.65c1.08-3.51,1.71-7.74-2-7.74-2.52,0-4.59,2-6,4l-9.09,30H27.67l8-26.28c1.08-3.51,1.53-7.74-2.16-7.74-2.43,0-4.5,2-5.94,4L18.4,86.75H1.66Z"/><path class="cls-1" d="M142.6,63.26C136,77.75,125.41,87.92,109.21,87.92c-14.4,0-23.4-8-23.4-20.88,0-13.95,10.53-28.26,26.64-28.26,11,0,18.09,6.66,18.09,14.49s-7.11,17.82-25.65,18.09c1.62,3.24,4.95,5,9.72,5,7.47,0,15.75-4.68,21.51-16.29A10.8,10.8,0,0,1,142.6,63.26Zm-38.79.36c8-.54,11.61-4.32,11.61-7.47A3,3,0,0,0,112.18,53C108.13,53,104.44,57.59,103.81,63.62Z"/><path class="cls-1" d="M190.12,63.26c-6.57,14.49-17.19,24.66-33.39,24.66-14.4,0-23.4-8-23.4-20.88,0-13.95,10.53-28.26,26.64-28.26,11,0,18.09,6.66,18.09,14.49S171,71.09,152.41,71.36c1.62,3.24,4.95,5,9.72,5,7.47,0,15.75-4.68,21.51-16.29A10.8,10.8,0,0,1,190.12,63.26Zm-38.79.36c8-.54,11.61-4.32,11.61-7.47A3,3,0,0,0,159.7,53C155.65,53,152,57.59,151.33,63.62Z"/><path class="cls-1" d="M184.9,39.68h4.86l3.33-11,18.36-5-4.95,16h10.89l-3.78,12.51H202.72l-5,16.38c-1.8,5.85.54,7.38,3.06,7.38,5.94,0,12.78-8.28,16.47-15.84a10.8,10.8,0,0,1,6.48,3.15c-6.12,13.5-15.12,24.39-28.62,24.39-14,0-16.38-11.7-12.78-23.58l3.6-11.88h-4.77Z"/><path class="cls-1" d="M344.2,39.68h4.86l3.33-11,18.36-5-5,16h10.89l-3.78,12.51H362l-5,16.38c-1.8,5.85.54,7.38,3.06,7.38,5.94,0,12.78-8.28,16.47-15.84A10.8,10.8,0,0,1,383,63.26c-6.12,13.5-15.12,24.39-28.62,24.39-14,0-16.38-11.7-12.78-23.58l3.6-11.88h-4.77Z"/><path class="cls-1" d="M387.49,23.75h16.74l-6,19.71c3.42-3.15,6.84-4.68,11-4.68,10.44,0,13.77,9.81,10.53,20.34l-3.87,12.6c-.72,2.43-.81,4.23,1,4.23,3.15,0,7.83-5.85,12.78-15.84a10.8,10.8,0,0,1,6.48,3.15c-6.57,14.49-15.39,24.39-26.37,24.39-11.52,0-12.15-11-9.54-19.53l2.61-8.55c1.17-3.87.9-6.84-2.52-6.84-2.43,0-4.23,1.53-5.94,3.33L385,86.75H368.23Z"/><path class="cls-1" d="M483.61,63.26C477,77.75,466.42,87.92,450.22,87.92c-14.4,0-23.4-8-23.4-20.88,0-13.95,10.53-28.26,26.64-28.26,11,0,18.09,6.66,18.09,14.49s-7.11,17.82-25.65,18.09c1.62,3.24,4.95,5,9.72,5,7.47,0,15.75-4.68,21.51-16.29A10.81,10.81,0,0,1,483.61,63.26Zm-38.79.36c8-.54,11.61-4.32,11.61-7.47A3,3,0,0,0,453.19,53C449.14,53,445.45,57.59,444.82,63.62Z"/><path class="cls-1" d="M477.13,60.11a111.66,111.66,0,0,0,4.77-11.43,11.1,11.1,0,0,1-3.78-8.37,9.74,9.74,0,0,1,9.72-10,9.88,9.88,0,0,1,8.64,4.86l-3.24,8.28,1.08.45c10,4.14,17.1,7.29,13.5,19l-2.7,8.82c-.72,2.43-.81,4.23,1,4.23,3.15,0,7.83-5.85,12.78-15.84a10.81,10.81,0,0,1,6.48,3.15C518.8,77.75,510,87.65,499,87.65c-11.52,0-12.15-11-9.54-19.53l2.25-7.38C493,56.6,493.24,55,491,53.9l-3.06-1.44q-1.89,5.4-4.32,10.8A10.81,10.81,0,0,1,477.13,60.11Z"/><path class="cls-1" d="M572.89,63.26c-6.57,14.49-17.19,24.66-33.39,24.66-14.4,0-23.4-8-23.4-20.88,0-13.95,10.53-28.26,26.64-28.26,11,0,18.09,6.66,18.09,14.49s-7.11,17.82-25.65,18.09c1.62,3.24,4.95,5,9.72,5,7.47,0,15.75-4.68,21.51-16.29A10.81,10.81,0,0,1,572.89,63.26Zm-38.79.36c8-.54,11.61-4.32,11.61-7.47A3,3,0,0,0,542.47,53C538.42,53,534.73,57.59,534.1,63.62Z"/><path class="cls-2" d="M280.89,109.19a60.83,60.83,0,0,1-18.24-2.56A37.5,37.5,0,0,1,248.73,99a33.64,33.64,0,0,1-8.88-13,49.6,49.6,0,0,1-3.12-18.4V-.25h34.08v66.4q0,5.6,2.32,8.56t7.76,3q5.44,0,7.76-3T291,66.15V-.25h34.24V67.59A49.6,49.6,0,0,1,322.09,86a33.25,33.25,0,0,1-9,13,38.29,38.29,0,0,1-14,7.68A60.83,60.83,0,0,1,280.89,109.19Zm0-19.2q-24,0-24-23.52V12.55h-4.16V66.47q0,13.44,7.28,20.56t20.88,7.12q13.6,0,21-7.12t7.36-20.56V12.55h-4.32V66.47Q304.89,90,280.89,90Z"/></svg>